<svg xmlns="http://www.w3.org/2000/svg" viewBox="0 0 64 64" role="img" aria-label="Somatriq">
  <rect width="64" height="64" rx="14" fill="#172421"/>
  <g fill="#f6f5f0" opacity=".46">
    <circle cx="17" cy="18" r="2"/>
    <circle cx="17" cy="32" r="2"/>
    <circle cx="17" cy="46" r="2"/>
    <circle cx="32" cy="18" r="2"/>
    <circle cx="32" cy="32" r="2"/>
    <circle cx="32" cy="46" r="2"/>
    <circle cx="47" cy="18" r="2"/>
    <circle cx="47" cy="32" r="2"/>
    <circle cx="47" cy="46" r="2"/>
  </g>
  <path d="M16 18h18c7.5 0 11 3.2 11 7.2 0 4.2-3.5 6.8-11 6.8h-4c-7.5 0-11 2.7-11 6.8 0 4 3.5 7.2 11 7.2h18" fill="none" stroke="#63c7b5" stroke-width="4" stroke-linecap="round"/>
  <circle cx="17" cy="18" r="3" fill="#f6f5f0"/>
  <circle cx="47" cy="46" r="3" fill="#f6f5f0"/>
</svg>
